<?xml version="1.0" standalone="no"?>
<!DOCTYPE svg PUBLIC "-//W3C//DTD SVG 20010904//EN"
 "http://www.w3.org/TR/2001/REC-SVG-20010904/DTD/svg10.dtd">
<svg version="1.0" xmlns="http://www.w3.org/2000/svg"
 width="200.000000pt" height="40.000000pt" viewBox="0 0 200.000000 40.000000"
 preserveAspectRatio="xMidYMid meet">

<g transform="translate(0.000000,40.000000) scale(0.100000,-0.100000)"
fill="#000000" stroke="none">
<path d="M0 200 l0 -200 245 0 245 0 0 200 0 200 -245 0 -245 0 0 -200z m168
73 l47 -98 3 98 3 98 32 -3 32 -3 0 -160 0 -160 -38 -3 -37 -3 -43 90 c-23 49
-44 90 -47 91 -3 0 -5 -39 -5 -87 l0 -88 -32 -3 -33 -3 0 165 0 166 35 0 c35
0 37 -1 83 -97z m302 92 c0 -3 -25 -49 -55 -103 -50 -90 -55 -104 -55 -160 0
-59 -1 -62 -25 -62 -25 0 -25 0 -25 96 0 92 2 100 37 165 37 69 37 69 80 69
24 0 43 -2 43 -5z"/>
<path d="M760 318 l0 -73 -85 -3 -84 -3 -3 68 c-3 58 -6 68 -21 68 -17 0 -19
-9 -19 -85 l0 -85 105 1 c103 1 105 0 110 -23 4 -23 3 -23 -89 -23 l-94 0 0
-75 0 -75 116 0 115 0 -1 78 c-3 170 -3 172 25 172 18 0 25 5 25 20 0 15 -7
20 -25 20 -23 0 -25 4 -25 45 0 41 -2 45 -25 45 -24 0 -25 -2 -25 -72z m0
-233 l0 -35 -70 0 -70 0 0 35 0 35 70 0 70 0 0 -35z"/>
<path d="M988 375 c-51 -29 -49 -94 4 -121 42 -22 149 -16 177 10 28 25 28 77
0 102 -28 25 -142 31 -181 9z m141 -42 l24 -16 -23 -19 c-38 -31 -130 -19
-130 17 0 35 88 47 129 18z"/>
<path d="M1548 328 l-3 -63 -37 -3 c-30 -3 -38 -7 -38 -23 0 -16 7 -19 40 -19
l40 0 0 -65 c0 -58 2 -65 20 -65 19 0 20 7 20 150 0 142 -1 150 -20 150 -16 0
-19 -8 -22 -62z"/>
<path d="M1920 355 c0 -34 -1 -35 -40 -35 -33 0 -40 -3 -40 -20 0 -17 7 -20
39 -20 l39 0 4 -50 3 -49 -95 -3 c-77 -2 -95 -6 -95 -18 0 -12 17 -16 85 -18
122 -4 131 -16 16 -22 l-98 -5 -2 -53 -1 -52 123 0 c115 0 122 1 122 20 0 19
-7 20 -100 20 -127 0 -133 18 -7 22 l92 3 3 158 2 157 -25 0 c-22 0 -25 -4
-25 -35z"/>
<path d="M1756 338 c-5 -30 -18 -52 -47 -81 -65 -66 -30 -95 37 -32 l37 36 34
-33 c27 -26 37 -30 50 -22 25 16 25 28 1 39 -31 14 -68 72 -68 106 0 22 -5 29
-19 29 -14 0 -20 -10 -25 -42z"/>
<path d="M1317 363 c-4 -3 -7 -12 -7 -20 0 -9 17 -13 60 -13 52 0 60 -3 60
-19 0 -25 -73 -106 -110 -121 -33 -14 -36 -20 -18 -38 19 -19 31 -15 82 24 47
36 87 101 101 162 l7 32 -85 0 c-46 0 -87 -3 -90 -7z"/>
<path d="M900 210 c0 -17 7 -20 45 -20 33 0 45 -4 45 -15 0 -8 -9 -15 -20 -15
-13 0 -20 -7 -20 -20 0 -19 7 -20 101 -20 64 0 98 -4 94 -10 -3 -6 -48 -10
-101 -10 l-94 0 0 -45 0 -45 125 0 c118 0 125 1 125 20 0 19 -7 20 -102 22
l-103 2 98 3 97 4 0 49 c0 43 -3 50 -20 50 -11 0 -20 7 -20 15 0 11 12 15 45
15 38 0 45 3 45 20 0 19 -7 20 -170 20 -163 0 -170 -1 -170 -20z m205 -35 c0
-5 -15 -11 -32 -13 -25 -3 -33 1 -33 13 0 12 8 16 33 13 17 -2 32 -7 32 -13z"/>
<path d="M1360 76 l0 -66 120 0 c113 0 120 1 120 20 0 19 -7 20 -94 20 l-95 0
-3 43 c-2 35 -7 43 -25 45 -22 3 -23 0 -23 -62z"/>
</g>
</svg>
